M48
; DRILL file {KiCad 5.1.5+dfsg1-2build2} date ven 26 gen 2024, 22:00:13
; FORMAT={-:-/ absolute / inch / decimal}
; #@! TF.CreationDate,2024-01-26T22:00:13+01:00
; #@! TF.GenerationSoftware,Kicad,Pcbnew,5.1.5+dfsg1-2build2
; #@! TF.FileFunction,Plated,1,2,PTH
FMAT,2
INCH
T1C0.0157
T2C0.0394
T3C0.0420
T4C0.0433
T5C0.0472
T6C0.0669
T7C0.0787
%
G90
G05
T1
X2.05Y-4.25
X2.15Y-3.9
X2.25Y-3.45
X2.45Y-3.0
X3.25Y-6.05
X3.45Y-3.45
X3.6Y-6.05
X3.9Y-3.15
X4.0Y-2.65
X4.1Y-3.15
X4.2Y-2.65
X4.3Y-3.45
X4.3Y-3.55
X4.3Y-5.55
X4.35Y-2.45
X4.35Y-2.65
X4.35Y-2.9
X4.35Y-3.0
X4.45Y-2.75
X4.6Y-5.2
X5.2414Y-6.9914
X5.25Y-5.75
T2
X4.8Y-6.75
X4.8984Y-6.75
X4.9969Y-6.75
X4.8Y-5.35
X4.8984Y-5.35
X4.9969Y-5.35
X4.8Y-6.05
X4.8984Y-6.05
X4.9969Y-6.05
X2.4Y-6.75
X2.4984Y-6.75
X2.5969Y-6.75
X2.75Y-1.9
X2.75Y-2.0
X2.75Y-2.1
X2.75Y-2.2
X2.75Y-2.3
X2.75Y-2.4
X2.75Y-2.5
X2.75Y-2.6
X2.75Y-2.8
X2.75Y-2.9
X2.75Y-3.0
X2.75Y-3.1
X2.75Y-3.2
X2.75Y-3.3
X4.65Y-1.5402
X4.65Y-1.6402
X4.65Y-1.7402
X4.65Y-1.8402
X4.65Y-1.9402
X4.65Y-2.0402
X4.65Y-2.1402
X4.65Y-2.2402
X4.65Y-2.3402
X4.65Y-2.4402
X4.65Y-2.6
X4.65Y-2.7
X4.65Y-2.8
X4.65Y-2.9
X4.65Y-3.0
X4.65Y-3.1
X4.65Y-3.2
X4.65Y-3.3
X2.4Y-6.05
X2.4984Y-6.05
X2.5969Y-6.05
X2.4Y-5.3
X2.4984Y-5.3
X2.5969Y-5.3
T3
X4.8587Y-4.75
X4.8587Y-4.9468
X5.0555Y-4.75
X5.0555Y-4.9468
X2.3543Y-4.75
X2.3543Y-4.9468
X2.5512Y-4.75
X2.5512Y-4.9468
T4
X5.6516Y-4.0244
X5.6516Y-4.5953
X5.75Y-4.5953
X5.8484Y-4.0244
X5.8484Y-4.5953
X3.6516Y-6.8244
X3.6516Y-7.3953
X3.75Y-7.3953
X3.8484Y-6.8244
X3.8484Y-7.3953
X1.5516Y-4.0244
X1.5516Y-4.5953
X1.65Y-4.5953
X1.7484Y-4.0244
X1.7484Y-4.5953
T5
X2.2622Y-4.2
X2.2622Y-4.3378
X5.1559Y-4.2
X1.5978Y-1.0
X1.7356Y-1.0
X1.7356Y-3.3031
X5.6644Y-1.0
X5.8022Y-1.0
X5.8022Y-3.3031
T6
X2.4256Y-4.4343
X2.4728Y-4.1035
X4.9453Y-4.1035
X4.9925Y-4.4343
X1.5014Y-1.1634
X1.5014Y-3.1398
X1.8321Y-1.2106
X1.8321Y-3.0925
X5.5679Y-1.1634
X5.5679Y-3.1398
X5.8986Y-1.2106
X5.8986Y-3.0925
T7
G00X5.5256Y-4.2843
M15
G01X5.5256Y-4.3157
M16
G05
G00X5.9744Y-4.2843
M15
G01X5.9744Y-4.3157
M16
G05
G00X3.5256Y-7.0843
M15
G01X3.5256Y-7.1157
M16
G05
G00X3.9744Y-7.0843
M15
G01X3.9744Y-7.1157
M16
G05
G00X1.4256Y-4.2843
M15
G01X1.4256Y-4.3157
M16
G05
G00X1.8744Y-4.2843
M15
G01X1.8744Y-4.3157
M16
G05
T0
M30
