G04 #@! TF.GenerationSoftware,KiCad,Pcbnew,5.1.5+dfsg1-2build2*
G04 #@! TF.CreationDate,2024-01-26T22:00:08+01:00*
G04 #@! TF.ProjectId,console,636f6e73-6f6c-4652-9e6b-696361645f70,rev?*
G04 #@! TF.SameCoordinates,Original*
G04 #@! TF.FileFunction,Legend,Top*
G04 #@! TF.FilePolarity,Positive*
%FSLAX46Y46*%
G04 Gerber Fmt 4.6, Leading zero omitted, Abs format (unit mm)*
G04 Created by KiCad (PCBNEW 5.1.5+dfsg1-2build2) date 2024-01-26 22:00:08*
%MOMM*%
%LPD*%
G04 APERTURE LIST*
%ADD10C,0.300000*%
%ADD11C,0.200000*%
%ADD12C,0.127000*%
%ADD13C,0.152400*%
%ADD14C,0.120000*%
G04 APERTURE END LIST*
D10*
X27834285Y-123863571D02*
X27834285Y-122363571D01*
X28191428Y-122363571D01*
X28405714Y-122435000D01*
X28548571Y-122577857D01*
X28620000Y-122720714D01*
X28691428Y-123006428D01*
X28691428Y-123220714D01*
X28620000Y-123506428D01*
X28548571Y-123649285D01*
X28405714Y-123792142D01*
X28191428Y-123863571D01*
X27834285Y-123863571D01*
X29905714Y-123792142D02*
X29762857Y-123863571D01*
X29477142Y-123863571D01*
X29334285Y-123792142D01*
X29262857Y-123649285D01*
X29262857Y-123077857D01*
X29334285Y-122935000D01*
X29477142Y-122863571D01*
X29762857Y-122863571D01*
X29905714Y-122935000D01*
X29977142Y-123077857D01*
X29977142Y-123220714D01*
X29262857Y-123363571D01*
X30548571Y-123792142D02*
X30691428Y-123863571D01*
X30977142Y-123863571D01*
X31120000Y-123792142D01*
X31191428Y-123649285D01*
X31191428Y-123577857D01*
X31120000Y-123435000D01*
X30977142Y-123363571D01*
X30762857Y-123363571D01*
X30620000Y-123292142D01*
X30548571Y-123149285D01*
X30548571Y-123077857D01*
X30620000Y-122935000D01*
X30762857Y-122863571D01*
X30977142Y-122863571D01*
X31120000Y-122935000D01*
X31834285Y-123863571D02*
X31834285Y-122863571D01*
X31834285Y-122363571D02*
X31762857Y-122435000D01*
X31834285Y-122506428D01*
X31905714Y-122435000D01*
X31834285Y-122363571D01*
X31834285Y-122506428D01*
X33191428Y-122863571D02*
X33191428Y-124077857D01*
X33120000Y-124220714D01*
X33048571Y-124292142D01*
X32905714Y-124363571D01*
X32691428Y-124363571D01*
X32548571Y-124292142D01*
X33191428Y-123792142D02*
X33048571Y-123863571D01*
X32762857Y-123863571D01*
X32620000Y-123792142D01*
X32548571Y-123720714D01*
X32477142Y-123577857D01*
X32477142Y-123149285D01*
X32548571Y-123006428D01*
X32620000Y-122935000D01*
X32762857Y-122863571D01*
X33048571Y-122863571D01*
X33191428Y-122935000D01*
X33905714Y-122863571D02*
X33905714Y-123863571D01*
X33905714Y-123006428D02*
X33977142Y-122935000D01*
X34120000Y-122863571D01*
X34334285Y-122863571D01*
X34477142Y-122935000D01*
X34548571Y-123077857D01*
X34548571Y-123863571D01*
X35834285Y-123792142D02*
X35691428Y-123863571D01*
X35405714Y-123863571D01*
X35262857Y-123792142D01*
X35191428Y-123649285D01*
X35191428Y-123077857D01*
X35262857Y-122935000D01*
X35405714Y-122863571D01*
X35691428Y-122863571D01*
X35834285Y-122935000D01*
X35905714Y-123077857D01*
X35905714Y-123220714D01*
X35191428Y-123363571D01*
X37191428Y-123863571D02*
X37191428Y-122363571D01*
X37191428Y-123792142D02*
X37048571Y-123863571D01*
X36762857Y-123863571D01*
X36620000Y-123792142D01*
X36548571Y-123720714D01*
X36477142Y-123577857D01*
X36477142Y-123149285D01*
X36548571Y-123006428D01*
X36620000Y-122935000D01*
X36762857Y-122863571D01*
X37048571Y-122863571D01*
X37191428Y-122935000D01*
X39048571Y-123863571D02*
X39048571Y-122363571D01*
X39048571Y-122935000D02*
X39191428Y-122863571D01*
X39477142Y-122863571D01*
X39620000Y-122935000D01*
X39691428Y-123006428D01*
X39762857Y-123149285D01*
X39762857Y-123577857D01*
X39691428Y-123720714D01*
X39620000Y-123792142D01*
X39477142Y-123863571D01*
X39191428Y-123863571D01*
X39048571Y-123792142D01*
X40262857Y-122863571D02*
X40620000Y-123863571D01*
X40977142Y-122863571D02*
X40620000Y-123863571D01*
X40477142Y-124220714D01*
X40405714Y-124292142D01*
X40262857Y-124363571D01*
X42977142Y-122363571D02*
X43262857Y-122363571D01*
X43405714Y-122435000D01*
X43548571Y-122577857D01*
X43620000Y-122863571D01*
X43620000Y-123363571D01*
X43548571Y-123649285D01*
X43405714Y-123792142D01*
X43262857Y-123863571D01*
X42977142Y-123863571D01*
X42834285Y-123792142D01*
X42691428Y-123649285D01*
X42620000Y-123363571D01*
X42620000Y-122863571D01*
X42691428Y-122577857D01*
X42834285Y-122435000D01*
X42977142Y-122363571D01*
X44477142Y-123863571D02*
X44334285Y-123792142D01*
X44262857Y-123649285D01*
X44262857Y-122363571D01*
X45262857Y-123863571D02*
X45120000Y-123792142D01*
X45048571Y-123720714D01*
X44977142Y-123577857D01*
X44977142Y-123149285D01*
X45048571Y-123006428D01*
X45120000Y-122935000D01*
X45262857Y-122863571D01*
X45477142Y-122863571D01*
X45620000Y-122935000D01*
X45691428Y-123006428D01*
X45762857Y-123149285D01*
X45762857Y-123577857D01*
X45691428Y-123720714D01*
X45620000Y-123792142D01*
X45477142Y-123863571D01*
X45262857Y-123863571D01*
X46191428Y-122863571D02*
X46762857Y-122863571D01*
X46405714Y-122363571D02*
X46405714Y-123649285D01*
X46477142Y-123792142D01*
X46620000Y-123863571D01*
X46762857Y-123863571D01*
X47905714Y-122863571D02*
X47905714Y-123863571D01*
X47262857Y-122863571D02*
X47262857Y-123649285D01*
X47334285Y-123792142D01*
X47477142Y-123863571D01*
X47691428Y-123863571D01*
X47834285Y-123792142D01*
X47905714Y-123720714D01*
X48620000Y-123863571D02*
X48620000Y-122863571D01*
X48620000Y-123149285D02*
X48691428Y-123006428D01*
X48762857Y-122935000D01*
X48905714Y-122863571D01*
X49048571Y-122863571D01*
X49548571Y-123863571D02*
X49548571Y-122863571D01*
X49548571Y-122363571D02*
X49477142Y-122435000D01*
X49548571Y-122506428D01*
X49620000Y-122435000D01*
X49548571Y-122363571D01*
X49548571Y-122506428D01*
X50905714Y-123863571D02*
X50905714Y-123077857D01*
X50834285Y-122935000D01*
X50691428Y-122863571D01*
X50405714Y-122863571D01*
X50262857Y-122935000D01*
X50905714Y-123792142D02*
X50762857Y-123863571D01*
X50405714Y-123863571D01*
X50262857Y-123792142D01*
X50191428Y-123649285D01*
X50191428Y-123506428D01*
X50262857Y-123363571D01*
X50405714Y-123292142D01*
X50762857Y-123292142D01*
X50905714Y-123220714D01*
X28227142Y-125413571D02*
X28584285Y-126413571D01*
X28941428Y-125413571D01*
X29512857Y-126270714D02*
X29584285Y-126342142D01*
X29512857Y-126413571D01*
X29441428Y-126342142D01*
X29512857Y-126270714D01*
X29512857Y-126413571D01*
X31012857Y-126413571D02*
X30155714Y-126413571D01*
X30584285Y-126413571D02*
X30584285Y-124913571D01*
X30441428Y-125127857D01*
X30298571Y-125270714D01*
X30155714Y-125342142D01*
X31655714Y-126270714D02*
X31727142Y-126342142D01*
X31655714Y-126413571D01*
X31584285Y-126342142D01*
X31655714Y-126270714D01*
X31655714Y-126413571D01*
X32655714Y-124913571D02*
X32798571Y-124913571D01*
X32941428Y-124985000D01*
X33012857Y-125056428D01*
X33084285Y-125199285D01*
X33155714Y-125485000D01*
X33155714Y-125842142D01*
X33084285Y-126127857D01*
X33012857Y-126270714D01*
X32941428Y-126342142D01*
X32798571Y-126413571D01*
X32655714Y-126413571D01*
X32512857Y-126342142D01*
X32441428Y-126270714D01*
X32370000Y-126127857D01*
X32298571Y-125842142D01*
X32298571Y-125485000D01*
X32370000Y-125199285D01*
X32441428Y-125056428D01*
X32512857Y-124985000D01*
X32655714Y-124913571D01*
X34870000Y-125056428D02*
X34941428Y-124985000D01*
X35084285Y-124913571D01*
X35441428Y-124913571D01*
X35584285Y-124985000D01*
X35655714Y-125056428D01*
X35727142Y-125199285D01*
X35727142Y-125342142D01*
X35655714Y-125556428D01*
X34798571Y-126413571D01*
X35727142Y-126413571D01*
X37012857Y-124913571D02*
X36727142Y-124913571D01*
X36584285Y-124985000D01*
X36512857Y-125056428D01*
X36370000Y-125270714D01*
X36298571Y-125556428D01*
X36298571Y-126127857D01*
X36370000Y-126270714D01*
X36441428Y-126342142D01*
X36584285Y-126413571D01*
X36870000Y-126413571D01*
X37012857Y-126342142D01*
X37084285Y-126270714D01*
X37155714Y-126127857D01*
X37155714Y-125770714D01*
X37084285Y-125627857D01*
X37012857Y-125556428D01*
X36870000Y-125485000D01*
X36584285Y-125485000D01*
X36441428Y-125556428D01*
X36370000Y-125627857D01*
X36298571Y-125770714D01*
X37798571Y-125842142D02*
X38941428Y-125842142D01*
X40084285Y-124913571D02*
X40084285Y-125985000D01*
X40012857Y-126199285D01*
X39870000Y-126342142D01*
X39655714Y-126413571D01*
X39512857Y-126413571D01*
X41441428Y-126413571D02*
X41441428Y-125627857D01*
X41370000Y-125485000D01*
X41227142Y-125413571D01*
X40941428Y-125413571D01*
X40798571Y-125485000D01*
X41441428Y-126342142D02*
X41298571Y-126413571D01*
X40941428Y-126413571D01*
X40798571Y-126342142D01*
X40727142Y-126199285D01*
X40727142Y-126056428D01*
X40798571Y-125913571D01*
X40941428Y-125842142D01*
X41298571Y-125842142D01*
X41441428Y-125770714D01*
X42155714Y-125413571D02*
X42155714Y-126413571D01*
X42155714Y-125556428D02*
X42227142Y-125485000D01*
X42369999Y-125413571D01*
X42584285Y-125413571D01*
X42727142Y-125485000D01*
X42798571Y-125627857D01*
X42798571Y-126413571D01*
X43512857Y-125842142D02*
X44655714Y-125842142D01*
X45298571Y-125056428D02*
X45370000Y-124985000D01*
X45512857Y-124913571D01*
X45870000Y-124913571D01*
X46012857Y-124985000D01*
X46084285Y-125056428D01*
X46155714Y-125199285D01*
X46155714Y-125342142D01*
X46084285Y-125556428D01*
X45227142Y-126413571D01*
X46155714Y-126413571D01*
X47084285Y-124913571D02*
X47227142Y-124913571D01*
X47370000Y-124985000D01*
X47441428Y-125056428D01*
X47512857Y-125199285D01*
X47584285Y-125485000D01*
X47584285Y-125842142D01*
X47512857Y-126127857D01*
X47441428Y-126270714D01*
X47370000Y-126342142D01*
X47227142Y-126413571D01*
X47084285Y-126413571D01*
X46941428Y-126342142D01*
X46870000Y-126270714D01*
X46798571Y-126127857D01*
X46727142Y-125842142D01*
X46727142Y-125485000D01*
X46798571Y-125199285D01*
X46870000Y-125056428D01*
X46941428Y-124985000D01*
X47084285Y-124913571D01*
X48155714Y-125056428D02*
X48227142Y-124985000D01*
X48370000Y-124913571D01*
X48727142Y-124913571D01*
X48870000Y-124985000D01*
X48941428Y-125056428D01*
X49012857Y-125199285D01*
X49012857Y-125342142D01*
X48941428Y-125556428D01*
X48084285Y-126413571D01*
X49012857Y-126413571D01*
X50298571Y-125413571D02*
X50298571Y-126413571D01*
X49941428Y-124842142D02*
X49584285Y-125913571D01*
X50512857Y-125913571D01*
D11*
X91150000Y-172740000D02*
G75*
G03X91150000Y-172740000I-100000J0D01*
G01*
D12*
X101500000Y-187040000D02*
X101500000Y-183740000D01*
X98950000Y-187040000D02*
X101500000Y-187040000D01*
X89000000Y-187040000D02*
X91550000Y-187040000D01*
X89000000Y-183740000D02*
X89000000Y-187040000D01*
X101500000Y-173640000D02*
X101500000Y-176940000D01*
X98950000Y-173640000D02*
X101500000Y-173640000D01*
X89000000Y-173640000D02*
X91550000Y-173640000D01*
X89000000Y-176940000D02*
X89000000Y-173640000D01*
D11*
X141950000Y-101620000D02*
G75*
G03X141950000Y-101620000I-100000J0D01*
G01*
D12*
X152300000Y-115920000D02*
X152300000Y-112620000D01*
X149750000Y-115920000D02*
X152300000Y-115920000D01*
X139800000Y-115920000D02*
X142350000Y-115920000D01*
X139800000Y-112620000D02*
X139800000Y-115920000D01*
X152300000Y-102520000D02*
X152300000Y-105820000D01*
X149750000Y-102520000D02*
X152300000Y-102520000D01*
X139800000Y-102520000D02*
X142350000Y-102520000D01*
X139800000Y-105820000D02*
X139800000Y-102520000D01*
D11*
X37810000Y-101620000D02*
G75*
G03X37810000Y-101620000I-100000J0D01*
G01*
D12*
X48160000Y-115920000D02*
X48160000Y-112620000D01*
X45610000Y-115920000D02*
X48160000Y-115920000D01*
X35660000Y-115920000D02*
X38210000Y-115920000D01*
X35660000Y-112620000D02*
X35660000Y-115920000D01*
X48160000Y-102520000D02*
X48160000Y-105820000D01*
X45610000Y-102520000D02*
X48160000Y-102520000D01*
X35660000Y-102520000D02*
X38210000Y-102520000D01*
X35660000Y-105820000D02*
X35660000Y-102520000D01*
D13*
X123410400Y-116520595D02*
X123410400Y-115250595D01*
X122775400Y-115885595D02*
X124045400Y-115885595D01*
X132031800Y-123149995D02*
G75*
G03X132031800Y-123149995I-6121400J0D01*
G01*
X59799600Y-116520595D02*
X59799600Y-115250595D01*
X59164600Y-115885595D02*
X60434600Y-115885595D01*
X68421000Y-123149995D02*
G75*
G03X68421000Y-123149995I-6121400J0D01*
G01*
D14*
X56590000Y-103810000D02*
X61175000Y-103810000D01*
X64446000Y-103810000D02*
X123975000Y-103810000D01*
X127246000Y-103810000D02*
X131830000Y-103810000D01*
X56590000Y-113050000D02*
X59975000Y-113050000D01*
X63246000Y-113050000D02*
X125175000Y-113050000D01*
X128446000Y-113050000D02*
X131830000Y-113050000D01*
X56590000Y-103810000D02*
X56590000Y-105505000D01*
X56590000Y-107855000D02*
X56590000Y-109358000D01*
X56590000Y-111003000D02*
X56590000Y-113050000D01*
X131830000Y-103810000D02*
X131830000Y-105857000D01*
X131830000Y-107503000D02*
X131830000Y-113050000D01*
X56285000Y-106680000D02*
X55785000Y-106180000D01*
X55785000Y-106180000D02*
X55785000Y-107180000D01*
X55785000Y-107180000D02*
X56285000Y-106680000D01*
X64210000Y-108430000D02*
X124210000Y-108430000D01*
X64210000Y-106930000D02*
X64210000Y-109930000D01*
X64960000Y-107680000D02*
X64210000Y-108430000D01*
X64210000Y-108430000D02*
X64960000Y-109180000D01*
X124210000Y-106930000D02*
X124210000Y-109930000D01*
X123460000Y-107680000D02*
X124210000Y-108430000D01*
X124210000Y-108430000D02*
X123460000Y-109180000D01*
X129390000Y-136770000D02*
X129390000Y-140635000D01*
X129390000Y-145145000D02*
X129390000Y-149010000D01*
X119450000Y-136770000D02*
X119450000Y-140635000D01*
X119450000Y-145145000D02*
X119450000Y-149010000D01*
X129390000Y-136770000D02*
X127791000Y-136770000D01*
X126049000Y-136770000D02*
X125290000Y-136770000D01*
X123549000Y-136770000D02*
X122790000Y-136770000D01*
X121050000Y-136770000D02*
X119450000Y-136770000D01*
X129390000Y-149010000D02*
X119450000Y-149010000D01*
X150245000Y-24530000D02*
X150245000Y-29115000D01*
X150245000Y-32386000D02*
X150245000Y-76915000D01*
X150245000Y-80186000D02*
X150245000Y-84770000D01*
X141005000Y-24530000D02*
X141005000Y-27915000D01*
X141005000Y-31186000D02*
X141005000Y-78115000D01*
X141005000Y-81386000D02*
X141005000Y-84770000D01*
X150245000Y-24530000D02*
X148550000Y-24530000D01*
X146200000Y-24530000D02*
X144697000Y-24530000D01*
X143052000Y-24530000D02*
X141005000Y-24530000D01*
X150245000Y-84770000D02*
X148198000Y-84770000D01*
X146552000Y-84770000D02*
X141005000Y-84770000D01*
X147375000Y-24225000D02*
X147875000Y-23725000D01*
X147875000Y-23725000D02*
X146875000Y-23725000D01*
X146875000Y-23725000D02*
X147375000Y-24225000D01*
X145625000Y-32150000D02*
X145625000Y-77150000D01*
X147125000Y-32150000D02*
X144125000Y-32150000D01*
X146375000Y-32900000D02*
X145625000Y-32150000D01*
X145625000Y-32150000D02*
X144875000Y-32900000D01*
X147125000Y-77150000D02*
X144125000Y-77150000D01*
X146375000Y-76400000D02*
X145625000Y-77150000D01*
X145625000Y-77150000D02*
X144875000Y-76400000D01*
X129390000Y-172330000D02*
X129390000Y-176195000D01*
X129390000Y-180705000D02*
X129390000Y-184570000D01*
X119450000Y-172330000D02*
X119450000Y-176195000D01*
X119450000Y-180705000D02*
X119450000Y-184570000D01*
X129390000Y-172330000D02*
X127791000Y-172330000D01*
X126049000Y-172330000D02*
X125290000Y-172330000D01*
X123549000Y-172330000D02*
X122790000Y-172330000D01*
X121050000Y-172330000D02*
X119450000Y-172330000D01*
X129390000Y-184570000D02*
X119450000Y-184570000D01*
X68430000Y-135500000D02*
X68430000Y-139365000D01*
X68430000Y-143875000D02*
X68430000Y-147740000D01*
X58490000Y-135500000D02*
X58490000Y-139365000D01*
X58490000Y-143875000D02*
X58490000Y-147740000D01*
X68430000Y-135500000D02*
X66831000Y-135500000D01*
X65089000Y-135500000D02*
X64330000Y-135500000D01*
X62589000Y-135500000D02*
X61830000Y-135500000D01*
X60090000Y-135500000D02*
X58490000Y-135500000D01*
X68430000Y-147740000D02*
X58490000Y-147740000D01*
X68430000Y-154550000D02*
X68430000Y-158415000D01*
X68430000Y-162925000D02*
X68430000Y-166790000D01*
X58490000Y-154550000D02*
X58490000Y-158415000D01*
X58490000Y-162925000D02*
X58490000Y-166790000D01*
X68430000Y-154550000D02*
X66831000Y-154550000D01*
X65089000Y-154550000D02*
X64330000Y-154550000D01*
X62589000Y-154550000D02*
X61830000Y-154550000D01*
X60090000Y-154550000D02*
X58490000Y-154550000D01*
X68430000Y-166790000D02*
X58490000Y-166790000D01*
X129390000Y-154550000D02*
X129390000Y-158415000D01*
X129390000Y-162925000D02*
X129390000Y-166790000D01*
X119450000Y-154550000D02*
X119450000Y-158415000D01*
X119450000Y-162925000D02*
X119450000Y-166790000D01*
X129390000Y-154550000D02*
X127791000Y-154550000D01*
X126049000Y-154550000D02*
X125290000Y-154550000D01*
X123549000Y-154550000D02*
X122790000Y-154550000D01*
X121050000Y-154550000D02*
X119450000Y-154550000D01*
X129390000Y-166790000D02*
X119450000Y-166790000D01*
X46955000Y-24530000D02*
X46955000Y-29115000D01*
X46955000Y-32386000D02*
X46955000Y-76915000D01*
X46955000Y-80186000D02*
X46955000Y-84770000D01*
X37715000Y-24530000D02*
X37715000Y-27915000D01*
X37715000Y-31186000D02*
X37715000Y-78115000D01*
X37715000Y-81386000D02*
X37715000Y-84770000D01*
X46955000Y-24530000D02*
X45260000Y-24530000D01*
X42910000Y-24530000D02*
X41407000Y-24530000D01*
X39762000Y-24530000D02*
X37715000Y-24530000D01*
X46955000Y-84770000D02*
X44908000Y-84770000D01*
X43262000Y-84770000D02*
X37715000Y-84770000D01*
X44085000Y-24225000D02*
X44585000Y-23725000D01*
X44585000Y-23725000D02*
X43585000Y-23725000D01*
X43585000Y-23725000D02*
X44085000Y-24225000D01*
X42335000Y-32150000D02*
X42335000Y-77150000D01*
X43835000Y-32150000D02*
X40835000Y-32150000D01*
X43085000Y-32900000D02*
X42335000Y-32150000D01*
X42335000Y-32150000D02*
X41585000Y-32900000D01*
X43835000Y-77150000D02*
X40835000Y-77150000D01*
X43085000Y-76400000D02*
X42335000Y-77150000D01*
X42335000Y-77150000D02*
X41585000Y-76400000D01*
X68430000Y-172330000D02*
X68430000Y-176195000D01*
X68430000Y-180705000D02*
X68430000Y-184570000D01*
X58490000Y-172330000D02*
X58490000Y-176195000D01*
X58490000Y-180705000D02*
X58490000Y-184570000D01*
X68430000Y-172330000D02*
X66831000Y-172330000D01*
X65089000Y-172330000D02*
X64330000Y-172330000D01*
X62589000Y-172330000D02*
X61830000Y-172330000D01*
X60090000Y-172330000D02*
X58490000Y-172330000D01*
X68430000Y-184570000D02*
X58490000Y-184570000D01*
M02*
