G04 #@! TF.GenerationSoftware,KiCad,Pcbnew,5.1.5+dfsg1-2build2*
G04 #@! TF.CreationDate,2024-01-26T22:00:08+01:00*
G04 #@! TF.ProjectId,console,636f6e73-6f6c-4652-9e6b-696361645f70,rev?*
G04 #@! TF.SameCoordinates,Original*
G04 #@! TF.FileFunction,Copper,L2,Bot*
G04 #@! TF.FilePolarity,Positive*
%FSLAX46Y46*%
G04 Gerber Fmt 4.6, Leading zero omitted, Abs format (unit mm)*
G04 Created by KiCad (PCBNEW 5.1.5+dfsg1-2build2) date 2024-01-26 22:00:08*
%MOMM*%
%LPD*%
G04 APERTURE LIST*
%ADD10O,3.000000X6.000000*%
%ADD11C,1.650000*%
%ADD12R,1.650000X1.650000*%
%ADD13C,1.574800*%
%ADD14C,2.700000*%
%ADD15C,1.750000*%
%ADD16R,1.750000X1.750000*%
%ADD17C,4.000000*%
%ADD18C,1.800000*%
%ADD19O,1.600000X1.600000*%
%ADD20R,1.600000X1.600000*%
%ADD21C,0.800000*%
%ADD22C,0.250000*%
G04 APERTURE END LIST*
D10*
X100950000Y-180340000D03*
X89550000Y-180340000D03*
D11*
X97750000Y-187840000D03*
X95250000Y-187840000D03*
X92750000Y-187840000D03*
X97750000Y-173340000D03*
D12*
X92750000Y-173340000D03*
D10*
X151750000Y-109220000D03*
X140350000Y-109220000D03*
D11*
X148550000Y-116720000D03*
X146050000Y-116720000D03*
X143550000Y-116720000D03*
X148550000Y-102220000D03*
D12*
X143550000Y-102220000D03*
D10*
X47610000Y-109220000D03*
X36210000Y-109220000D03*
D11*
X44410000Y-116720000D03*
X41910000Y-116720000D03*
X39410000Y-116720000D03*
X44410000Y-102220000D03*
D12*
X39410000Y-102220000D03*
D13*
X123410400Y-125649990D03*
X128410400Y-125649990D03*
X128410400Y-120650000D03*
X123410400Y-120650000D03*
X59799600Y-125649990D03*
X64799600Y-125649990D03*
X64799600Y-120650000D03*
X59799600Y-120650000D03*
D14*
X126810000Y-112630000D03*
X61610000Y-112630000D03*
X125610000Y-104230000D03*
X62810000Y-104230000D03*
D15*
X130960000Y-106680000D03*
X57460000Y-110180000D03*
D16*
X57460000Y-106680000D03*
D17*
X120020000Y-142890000D03*
X128820000Y-142890000D03*
D18*
X121920000Y-135890000D03*
X124420000Y-135890000D03*
X126920000Y-135890000D03*
D14*
X141425000Y-79750000D03*
X141425000Y-29550000D03*
X149825000Y-78550000D03*
X149825000Y-30750000D03*
D15*
X147375000Y-83900000D03*
X143875000Y-25400000D03*
D16*
X147375000Y-25400000D03*
D17*
X120020000Y-178450000D03*
X128820000Y-178450000D03*
D18*
X121920000Y-171450000D03*
X124420000Y-171450000D03*
X126920000Y-171450000D03*
D17*
X59060000Y-141620000D03*
X67860000Y-141620000D03*
D18*
X60960000Y-134620000D03*
X63460000Y-134620000D03*
X65960000Y-134620000D03*
D17*
X59060000Y-160670000D03*
X67860000Y-160670000D03*
D18*
X60960000Y-153670000D03*
X63460000Y-153670000D03*
X65960000Y-153670000D03*
D17*
X120020000Y-160670000D03*
X128820000Y-160670000D03*
D18*
X121920000Y-153670000D03*
X124420000Y-153670000D03*
X126920000Y-153670000D03*
D14*
X38135000Y-79750000D03*
X38135000Y-29550000D03*
X46535000Y-78550000D03*
X46535000Y-30750000D03*
D15*
X44085000Y-83900000D03*
X40585000Y-25400000D03*
D16*
X44085000Y-25400000D03*
D17*
X59060000Y-178450000D03*
X67860000Y-178450000D03*
D18*
X60960000Y-171450000D03*
X63460000Y-171450000D03*
X65960000Y-171450000D03*
D19*
X118110000Y-81280000D03*
X118110000Y-83820000D03*
X118110000Y-44200000D03*
X69850000Y-83820000D03*
X118110000Y-46740000D03*
X69850000Y-81280000D03*
X118110000Y-49280000D03*
X69850000Y-78740000D03*
X118110000Y-51820000D03*
X69850000Y-76200000D03*
X118110000Y-54360000D03*
X69850000Y-73660000D03*
X118110000Y-56900000D03*
X69850000Y-71120000D03*
X118110000Y-59440000D03*
X69850000Y-66040000D03*
X118110000Y-61980000D03*
X69850000Y-63500000D03*
X118110000Y-66040000D03*
X69850000Y-60960000D03*
X118110000Y-68580000D03*
X69850000Y-58420000D03*
X118110000Y-71120000D03*
X69850000Y-55880000D03*
X118110000Y-73660000D03*
X69850000Y-53340000D03*
X118110000Y-76200000D03*
X69850000Y-50800000D03*
X118110000Y-78740000D03*
D20*
X69850000Y-48260000D03*
D19*
X118110000Y-41660000D03*
X118110000Y-39120000D03*
D21*
X109220000Y-140970000D03*
X116840000Y-132080000D03*
X109220000Y-90170000D03*
X52070000Y-107950000D03*
X62230000Y-76200000D03*
X54610000Y-99060000D03*
X99060000Y-80010000D03*
X110490000Y-62230000D03*
X101600000Y-67310000D03*
X106680000Y-67310000D03*
X110490000Y-67310000D03*
X110490000Y-76200000D03*
X91440000Y-153670000D03*
X82550000Y-153670000D03*
X133130501Y-177580501D03*
X133350000Y-146050000D03*
X104140000Y-80010000D03*
X110490000Y-73660000D03*
X113030000Y-69850000D03*
X57150000Y-87630000D03*
X87630000Y-87630000D03*
X109220000Y-87630000D03*
D22*
X97750000Y-187840000D02*
X109220000Y-176370000D01*
X109220000Y-176370000D02*
X109220000Y-140970000D01*
X116840000Y-132080000D02*
X121920000Y-127000000D01*
X121920000Y-85090000D02*
X118110000Y-81280000D01*
X121920000Y-127000000D02*
X121920000Y-85090000D01*
X93900001Y-186689999D02*
X93900001Y-176609999D01*
X92750000Y-187840000D02*
X93900001Y-186689999D01*
X93900001Y-176609999D02*
X95250000Y-175260000D01*
X95250000Y-175260000D02*
X95250000Y-162560000D01*
X90714999Y-108675001D02*
X109220000Y-90170000D01*
X95250000Y-162560000D02*
X90714999Y-158024999D01*
X90714999Y-158024999D02*
X90714999Y-108675001D01*
X61134999Y-92535001D02*
X69850000Y-83820000D01*
X61134999Y-105034001D02*
X61134999Y-92535001D01*
X63460000Y-107359002D02*
X61134999Y-105034001D01*
X63460000Y-134620000D02*
X63460000Y-107359002D01*
X52070000Y-107950000D02*
X52070000Y-165100000D01*
X52070000Y-165100000D02*
X55880000Y-168910000D01*
X62773002Y-171450000D02*
X63460000Y-171450000D01*
X60233002Y-168910000D02*
X62773002Y-171450000D01*
X55880000Y-168910000D02*
X60233002Y-168910000D01*
X118110000Y-54360000D02*
X96770000Y-54360000D01*
X96770000Y-54360000D02*
X82550000Y-68580000D01*
X82550000Y-102899600D02*
X64799600Y-120650000D01*
X82550000Y-68580000D02*
X82550000Y-102899600D01*
X40585000Y-25400000D02*
X40585000Y-68525000D01*
X45720000Y-73660000D02*
X69850000Y-73660000D01*
X40585000Y-68525000D02*
X45720000Y-73660000D01*
X116984999Y-167495001D02*
X119380000Y-169890002D01*
X119380000Y-169890002D02*
X122900002Y-169890002D01*
X124420000Y-171410000D02*
X124420000Y-171450000D01*
X122900002Y-169890002D02*
X124420000Y-171410000D01*
X116984999Y-167495001D02*
X116984999Y-165244999D01*
X116984999Y-165244999D02*
X111760000Y-160020000D01*
X111760000Y-160020000D02*
X111760000Y-59690000D01*
X114550000Y-56900000D02*
X118110000Y-56900000D01*
X111760000Y-59690000D02*
X114550000Y-56900000D01*
X59690000Y-78740000D02*
X62230000Y-76200000D01*
X59690000Y-109220000D02*
X59690000Y-78740000D01*
X58730000Y-110180000D02*
X59690000Y-109220000D01*
X57460000Y-110180000D02*
X58730000Y-110180000D01*
X143550000Y-102220000D02*
X143550000Y-91480000D01*
X143550000Y-91480000D02*
X130810000Y-78740000D01*
X130810000Y-78740000D02*
X130810000Y-60960000D01*
X129290000Y-59440000D02*
X118110000Y-59440000D01*
X130810000Y-60960000D02*
X129290000Y-59440000D01*
X39410000Y-101145000D02*
X41495000Y-99060000D01*
X39410000Y-102220000D02*
X39410000Y-101145000D01*
X41495000Y-99060000D02*
X54610000Y-99060000D01*
X99060000Y-80010000D02*
X102870000Y-76200000D01*
X102870000Y-76200000D02*
X105410000Y-73660000D01*
X105410000Y-73660000D02*
X105410000Y-64770000D01*
X105410000Y-64770000D02*
X107950000Y-62230000D01*
X107950000Y-62230000D02*
X110490000Y-62230000D01*
X57460000Y-97275000D02*
X57460000Y-106229991D01*
X44085000Y-83900000D02*
X57460000Y-97275000D01*
X86904999Y-82005001D02*
X101600000Y-67310000D01*
X92750000Y-173340000D02*
X86904999Y-167494999D01*
X86904999Y-167494999D02*
X86904999Y-82005001D01*
X106680000Y-67310000D02*
X110490000Y-67310000D01*
X110490000Y-76200000D02*
X110490000Y-134620000D01*
X110490000Y-134620000D02*
X91440000Y-153670000D01*
X91440000Y-153670000D02*
X91440000Y-153670000D01*
X82550000Y-153670000D02*
X80010000Y-151130000D01*
X66000000Y-151130000D02*
X63460000Y-153670000D01*
X80010000Y-151130000D02*
X66000000Y-151130000D01*
X126594999Y-176124999D02*
X131674999Y-176124999D01*
X131674999Y-176124999D02*
X133130501Y-177580501D01*
X121920000Y-171450000D02*
X126594999Y-176124999D01*
X129540000Y-156210000D02*
X132080000Y-153670000D01*
X132080000Y-153670000D02*
X132080000Y-147320000D01*
X121920000Y-153670000D02*
X124460000Y-156210000D01*
X132080000Y-147320000D02*
X133350000Y-146050000D01*
X124460000Y-156210000D02*
X129540000Y-156210000D01*
X121920000Y-135890000D02*
X121920000Y-138430000D01*
X121920000Y-138430000D02*
X123190000Y-139700000D01*
X123190000Y-139700000D02*
X130810000Y-139700000D01*
X130810000Y-139700000D02*
X133350000Y-142240000D01*
X133350000Y-142240000D02*
X133350000Y-146050000D01*
X129540000Y-80010000D02*
X129540000Y-74930000D01*
X148550000Y-106720000D02*
X147240000Y-105410000D01*
X148550000Y-116720000D02*
X148550000Y-106720000D01*
X138430000Y-105410000D02*
X135890000Y-102870000D01*
X125730000Y-71120000D02*
X118110000Y-71120000D01*
X129540000Y-74930000D02*
X125730000Y-71120000D01*
X135890000Y-102870000D02*
X135890000Y-86360000D01*
X147240000Y-105410000D02*
X138430000Y-105410000D01*
X135890000Y-86360000D02*
X129540000Y-80010000D01*
X104140000Y-80010000D02*
X110490000Y-73660000D01*
X113030000Y-69850000D02*
X114300000Y-69850000D01*
X114300000Y-69850000D02*
X118110000Y-73660000D01*
X127000000Y-80010000D02*
X127000000Y-77470000D01*
X143550000Y-116720000D02*
X139580000Y-116720000D01*
X139580000Y-116720000D02*
X137160000Y-114300000D01*
X137160000Y-105410000D02*
X134620000Y-102870000D01*
X137160000Y-114300000D02*
X137160000Y-105410000D01*
X134620000Y-102870000D02*
X134620000Y-87630000D01*
X125730000Y-76200000D02*
X118110000Y-76200000D01*
X127000000Y-77470000D02*
X125730000Y-76200000D01*
X134620000Y-87630000D02*
X127000000Y-80010000D01*
X52219999Y-82699999D02*
X57150000Y-87630000D01*
X43508999Y-82699999D02*
X52219999Y-82699999D01*
X38259999Y-87948999D02*
X43508999Y-82699999D01*
X39410000Y-116720000D02*
X38259999Y-115569999D01*
X38259999Y-115569999D02*
X38259999Y-87948999D01*
X87630000Y-87630000D02*
X109220000Y-87630000D01*
M02*
